<?xml version="1.0" standalone="no"?>
<!DOCTYPE svg PUBLIC "-//W3C//DTD SVG 20010904//EN"
 "http://www.w3.org/TR/2001/REC-SVG-20010904/DTD/svg10.dtd">
<svg version="1.0" xmlns="http://www.w3.org/2000/svg"
 width="64.000000pt" height="64.000000pt" viewBox="0 0 64.000000 64.000000"
 preserveAspectRatio="xMidYMid meet">

<g transform="translate(0.000000,64.000000) scale(0.100000,-0.100000)"
fill="#000000" stroke="none">
<path d="M147 619 c-42 -22 -74 -67 -83 -116 -5 -28 -10 -33 -35 -33 l-29 0 0
-235 0 -235 160 0 c100 0 160 4 160 10 0 6 -57 10 -150 10 l-150 0 0 30 0 29
158 4 157 3 -157 2 -158 2 0 180 c0 177 0 180 21 180 19 0 21 -4 16 -35 -5
-30 -3 -35 13 -35 10 0 22 5 25 10 3 6 1 10 -4 10 -6 0 -11 11 -11 25 l0 25
141 0 142 0 -6 -35 c-5 -30 -3 -35 13 -35 10 0 22 4 25 10 3 6 1 10 -4 10 -6
0 -11 11 -11 25 0 20 5 25 25 25 23 0 24 -3 28 -72 l3 -73 2 83 2 82 -29 0
c-25 0 -29 4 -35 39 -16 104 -134 160 -229 110z m139 -15 c39 -19 74 -70 74
-108 l0 -26 -141 0 -141 0 6 32 c19 95 114 143 202 102z"/>
<path d="M350 180 l0 -110 145 0 145 0 0 110 0 110 -145 0 -145 0 0 -110z m80
33 c0 -37 27 -63 65 -63 38 0 52 14 61 58 8 40 24 42 24 3 0 -74 -90 -112
-145 -61 -25 24 -36 90 -15 90 6 0 10 -12 10 -27z"/>
<path d="M350 25 l0 -25 145 0 145 0 0 25 0 25 -145 0 -145 0 0 -25z"/>
</g>
</svg>
